<svg width="40" height="41" viewBox="0 0 40 41" fill="none" xmlns="http://www.w3.org/2000/svg">
<path d="M34.5211 11.7309C33.9015 10.2831 32.7562 9.16351 31.2959 8.57853C30.595 8.29763 29.8595 8.1552 29.11 8.1552C27.8268 8.1552 26.6221 8.56498 25.6381 9.28398C24.9356 6.8143 22.6639 5 19.9754 5C17.2977 5 15.0335 6.79974 14.3211 9.25434C13.3449 8.55345 12.1555 8.1552 10.8898 8.1552C10.1403 8.1552 9.40496 8.29753 8.70395 8.57853C7.24385 9.16351 6.09859 10.2831 5.479 11.7309C4.8596 13.1788 4.84031 14.7815 5.42465 16.2438C6.34263 18.5418 8.96728 21.0763 11.5547 21.5441C11.448 22.0443 11.4911 22.5649 11.6852 23.0505C12.0652 24.0014 12.7918 24.1042 13.0867 24.1042C13.4766 24.1042 13.8163 23.9551 14.1423 23.796C14.687 24.4593 15.8893 25.9946 17.0384 27.9468C16.8131 27.9062 16.5907 27.9468 16.3769 27.9468C14.9947 27.9468 14.1361 28.8118 14.1361 30.3071C14.1361 32.9563 15.9349 33.1623 16.4862 33.1624C16.4864 33.1624 16.4864 33.1624 16.4864 33.1624C17.28 33.1624 18.1734 32.8132 18.994 32.3151V34.0172C18.994 34.5599 19.4335 35 19.9754 35C20.5174 35 20.9568 34.5599 20.9568 34.0172V32.3151C21.7775 32.8132 22.6709 33.1624 23.4646 33.1624C24.0158 33.1624 25.8148 32.9565 25.8148 30.3071C25.8148 28.8118 24.9562 27.8828 23.5739 27.8828C23.3774 27.8828 23.1736 27.912 22.9668 27.9468C24.1144 25.9989 25.3137 24.4581 25.8575 23.796C26.1837 23.9551 26.5233 24.1042 26.9132 24.1042C27.2081 24.1042 27.9347 24.0014 28.3147 23.0505C28.5086 22.5649 28.5519 22.0444 28.4452 21.5441C31.0325 21.0764 33.6572 18.5418 34.5753 16.2438C35.1597 14.7815 35.1403 13.1788 34.5211 11.7309ZM23.4857 21.1155C23.2923 21.5995 23.2877 22.0418 23.472 22.4306C23.5932 22.6859 23.7701 22.8674 23.9705 23.0041C23.2356 23.9317 22.0519 25.9937 20.9569 27.9468V21.1678C21.9561 21.1621 22.5762 20.5419 22.5762 19.5455C22.5762 19.0116 22.4147 18.5148 22.1384 18.1012C22.5358 17.8523 22.9193 17.5345 23.284 17.1526C23.508 18.2684 23.8985 19.2074 24.428 19.9334C24.0139 20.2179 23.6822 20.6234 23.4857 21.1155ZM16.5145 21.1155C16.3179 20.6234 15.9862 20.2179 15.572 19.9334C16.0949 19.2165 16.4818 18.2916 16.707 17.1941C17.0596 17.5576 17.4296 17.8614 17.8125 18.1012C17.5362 18.5148 17.3747 19.0116 17.3747 19.5455C17.3747 20.542 17.9949 21.1621 18.994 21.1678V27.9468C17.913 26.0332 16.7536 23.9179 16.0294 23.0041C16.2297 22.8674 16.4067 22.686 16.5279 22.4306C16.7123 22.0418 16.7078 21.5995 16.5145 21.1155ZM19.9755 19.1524C19.7879 19.1524 19.6142 19.163 19.4562 19.1747C19.5721 19.0125 19.7616 18.9068 19.9755 18.9068C20.1893 18.9068 20.3789 19.0126 20.4948 19.1747C20.3368 19.1631 20.1632 19.1524 19.9755 19.1524ZM19.9755 6.96573C22.1401 6.96573 23.901 8.72935 23.901 10.8969C23.901 12.0715 23.3982 13.6124 22.6201 14.8223C21.8143 16.0752 20.8503 16.7937 19.9754 16.7937C19.1005 16.7937 18.1365 16.0751 17.3306 14.8223C16.5525 13.6124 16.0497 12.0716 16.0497 10.8969C16.0499 8.72925 17.8109 6.96573 19.9755 6.96573ZM7.24688 15.5136C6.85748 14.5386 6.87021 13.4702 7.28314 12.505C7.69617 11.5398 8.45981 10.7934 9.43324 10.4034C9.90122 10.2158 10.3913 10.1208 10.8899 10.1208C12.2308 10.1208 13.4443 10.79 14.1613 11.8763C14.2823 12.7262 14.55 13.6302 14.9323 14.491C14.9831 15.2206 14.9426 15.9936 14.8032 16.7139C14.5197 18.1768 13.8913 19.2026 13.0791 19.5281C12.8682 19.6125 12.6329 19.6554 12.3799 19.6554C10.5068 19.6554 7.99173 17.3779 7.24688 15.5136ZM13.8628 21.4898C13.9393 21.4592 14.0188 21.4437 14.0994 21.4437C14.2256 21.4437 14.345 21.4801 14.4457 21.5452C14.2944 21.5931 14.1287 21.648 13.9541 21.718C13.7798 21.7877 13.6226 21.8623 13.4803 21.9319C13.5276 21.7383 13.6643 21.5695 13.8628 21.4898ZM16.4867 31.1968C16.4866 31.1968 16.4866 31.1968 16.4867 31.1968C16.3159 31.1968 16.2795 31.1524 16.2641 31.1335C16.1843 31.0363 16.099 30.768 16.099 30.3071C16.099 29.9781 16.1687 29.8796 16.1671 29.8795C16.1706 29.8775 16.225 29.8484 16.377 29.8484C16.8699 29.8484 17.5961 30.127 18.2594 30.456C17.5996 30.9046 16.9278 31.1968 16.4867 31.1968ZM23.779 29.8753C23.7841 29.8821 23.8521 29.9825 23.8521 30.3071C23.8521 30.7681 23.7667 31.0363 23.687 31.1336C23.6714 31.1525 23.635 31.1968 23.4647 31.1968C23.0239 31.1968 22.3529 30.9038 21.6939 30.456C22.3442 30.1338 23.0761 29.8484 23.574 29.8484C23.7256 29.8484 23.7799 29.8769 23.779 29.8753ZM26.046 21.718C25.8713 21.648 25.7057 21.5931 25.5544 21.5452C25.7193 21.4388 25.9408 21.4113 26.1372 21.4898C26.3358 21.5694 26.4725 21.7382 26.5198 21.9319C26.3775 21.8623 26.2203 21.7878 26.046 21.718ZM32.7532 15.5136C32.0082 17.378 29.4934 19.6554 27.6203 19.6553C27.3672 19.6553 27.132 19.6124 26.921 19.528C26.1088 19.2024 25.4803 18.1767 25.197 16.7138C25.0489 15.9491 25.0127 15.125 25.0786 14.3566C25.4151 13.5706 25.6538 12.7532 25.7743 11.9773C26.4814 10.8316 27.7283 10.1207 29.1101 10.1207C29.6087 10.1207 30.0988 10.2157 30.5668 10.4033C31.5403 10.7934 32.3039 11.5397 32.7169 12.5049C33.1297 13.4702 33.1426 14.5387 32.7532 15.5136Z" fill="#169EF1"/>
</svg>
