<svg width="40" height="41" viewBox="0 0 40 41" fill="none" xmlns="http://www.w3.org/2000/svg">
<path d="M28.5545 8.05556C26.2828 5.44031 23.2447 4 19.9999 4C16.7552 4 13.7172 5.44031 11.4454 8.05556C9.22364 10.6134 8 14.0017 8 17.5966C8 21.1914 9.2237 24.5798 11.4454 27.1376C13.4633 29.4605 16.086 30.8555 18.9209 31.1386C18.5826 32.7184 17.3062 33.6356 15.3629 33.6356C13.1231 33.6356 11.3007 31.8641 11.3007 29.6868C11.3007 29.0339 10.7562 28.5046 10.0846 28.5046C9.41299 28.5046 8.86848 29.0339 8.86848 29.6868C8.86848 33.1679 11.782 36 15.363 36C18.689 36 21.0158 34.0657 21.3895 31.1031C24.1052 30.7522 26.6105 29.3756 28.5545 27.1376C30.7763 24.5798 32 21.1914 32 17.5966C32 14.0018 30.7763 10.6134 28.5545 8.05556ZM19.9999 28.8288C14.7243 28.8288 10.4322 23.7901 10.4322 17.5966C10.4322 11.4031 14.7244 6.36444 19.9999 6.36444C25.2755 6.36444 29.5677 11.4031 29.5677 17.5966C29.5677 23.7901 25.2756 28.8288 19.9999 28.8288Z" fill="#169EF1"/>
</svg>
