<svg width="1920" height="11" viewBox="0 0 1920 11" fill="none" xmlns="http://www.w3.org/2000/svg">
<path d="M1.14667 10.1691L0 10.1505V9.74106V0H1920V10.1505L1918.85 10.1691C1916.11 10.2433 1912.44 9.29691 1904.91 6.55052C1895 2.95052 1891.63 2.31959 1886.48 3.08041C1883.76 3.4701 1880.96 4.30515 1874.75 6.55052C1866.6 9.51959 1863.79 10.2062 1859.75 10.2062C1855.71 10.2062 1852.91 9.51959 1844.75 6.55052C1838.55 4.30515 1835.75 3.4701 1833.02 3.08041C1827.87 2.31959 1824.51 2.95052 1814.6 6.55052C1806.44 9.51959 1803.64 10.2062 1799.6 10.2062C1795.56 10.2062 1792.76 9.51959 1784.6 6.55052C1778.4 4.30515 1775.59 3.4701 1772.87 3.08041C1767.72 2.31959 1764.35 2.95052 1754.45 6.55052C1746.29 9.51959 1743.49 10.2062 1739.45 10.2062C1735.4 10.2062 1732.6 9.51959 1724.45 6.55052C1714.54 2.95052 1711.17 2.31959 1706.02 3.08041C1703.3 3.4701 1700.5 4.30515 1694.29 6.55052C1686.76 9.29691 1683.09 10.2433 1680.35 10.1691C1674.84 10.0719 1670.24 8.42448 1665.1 6.55052C1655.19 2.95052 1651.83 2.31959 1646.68 3.08041C1643.95 3.4701 1641.15 4.30515 1634.95 6.55052C1626.79 9.51959 1623.99 10.2062 1619.95 10.2062C1615.91 10.2062 1613.11 9.51959 1604.95 6.55052C1598.74 4.30515 1595.94 3.4701 1593.22 3.08041C1588.07 2.31959 1584.7 2.95052 1574.8 6.55052C1566.64 9.51959 1563.84 10.2062 1559.79 10.2062C1555.75 10.2062 1552.95 9.51959 1544.79 6.55052C1538.59 4.30515 1535.79 3.4701 1533.06 3.08041C1527.91 2.31959 1524.55 2.95052 1514.64 6.55052C1506.48 9.51959 1503.68 10.2062 1499.64 10.2062C1495.6 10.2062 1492.8 9.51959 1484.64 6.55052C1474.73 2.95052 1471.37 2.31959 1466.22 3.08041C1463.49 3.4701 1460.69 4.30515 1454.49 6.55052C1446.95 9.29691 1443.29 10.2433 1440.54 10.1691C1435.13 10.1691 1430.17 8.39369 1425.11 6.55052C1415.2 2.95052 1411.84 2.31959 1406.69 3.08041C1403.96 3.4701 1401.16 4.30515 1394.96 6.55052C1386.8 9.51959 1384 10.2062 1379.95 10.2062C1375.91 10.2062 1373.11 9.51959 1364.95 6.55052C1358.75 4.30515 1355.95 3.4701 1353.22 3.08041C1348.07 2.31959 1344.71 2.95052 1334.8 6.55052C1326.64 9.51959 1323.84 10.2062 1319.8 10.2062C1315.76 10.2062 1312.96 9.51959 1304.8 6.55052C1298.6 4.30515 1295.8 3.4701 1293.07 3.08041C1287.92 2.31959 1284.56 2.95052 1274.65 6.55052C1266.49 9.51959 1263.69 10.2062 1259.65 10.2062C1255.61 10.2062 1252.81 9.51959 1244.65 6.55052C1234.74 2.95052 1231.38 2.31959 1226.23 3.08041C1223.5 3.4701 1220.7 4.30515 1214.5 6.55052C1206.96 9.29691 1203.29 10.2433 1200.55 10.1691C1195.23 10.1691 1190.33 8.38164 1185.37 6.57591L1185.3 6.55052C1175.4 2.95052 1172.03 2.31959 1166.88 3.08041C1164.15 3.4701 1161.35 4.30515 1155.15 6.55052C1146.99 9.51959 1144.19 10.2062 1140.15 10.2062C1136.11 10.2062 1133.31 9.51959 1125.15 6.55052C1118.95 4.30515 1116.14 3.4701 1113.42 3.08041C1108.27 2.31959 1104.9 2.95052 1095 6.55052C1086.84 9.51959 1084.04 10.2062 1080 10.2062C1075.96 10.2062 1073.15 9.51959 1065 6.55052C1058.79 4.30515 1055.99 3.4701 1053.27 3.08041C1048.12 2.31959 1044.75 2.95052 1034.84 6.55052C1026.69 9.51959 1023.88 10.2062 1019.84 10.2062C1015.8 10.2062 1013 9.51959 1004.84 6.55052C994.936 2.95052 991.571 2.31959 986.421 3.08041C983.695 3.4701 980.894 4.30515 974.691 6.55052C967.153 9.29691 963.487 10.2433 960.743 10.1691C955.328 10.1691 950.368 8.39369 945.309 6.55052C935.403 2.95052 932.038 2.31959 926.887 3.08041C924.162 3.4701 921.361 4.30515 915.157 6.55052C906.999 9.51959 904.198 10.2062 900.157 10.2062C896.115 10.2062 893.314 9.51959 885.156 6.55052C878.953 4.30515 876.152 3.4701 873.426 3.08041C868.276 2.31959 864.911 2.95052 855.004 6.55052C846.846 9.51959 844.045 10.2062 840.003 10.2062C835.962 10.2062 833.161 9.51959 825.003 6.55052C818.799 4.30515 815.999 3.4701 813.273 3.08041C808.122 2.31959 804.757 2.95052 794.851 6.55052C786.693 9.51959 783.892 10.2062 779.85 10.2062C775.809 10.2062 773.008 9.51959 764.85 6.55052C754.943 2.95052 751.578 2.31959 746.428 3.08041C743.702 3.4701 740.901 4.30515 734.698 6.55052C727.16 9.29691 723.494 10.2433 720.75 10.1691C715.436 10.1691 710.53 8.38165 705.574 6.57594L705.504 6.55052C695.598 2.95052 692.233 2.31959 687.082 3.08041C684.357 3.4701 681.556 4.30515 675.352 6.55052C667.194 9.51959 664.393 10.2062 660.352 10.2062C656.31 10.2062 653.509 9.51959 645.351 6.55052C639.148 4.30515 636.347 3.4701 633.621 3.08041C628.471 2.31959 625.106 2.95052 615.199 6.55052C607.041 9.51959 604.24 10.2062 600.198 10.2062C596.157 10.2062 593.356 9.51959 585.198 6.55052C578.994 4.30515 576.194 3.4701 573.468 3.08041C568.317 2.31959 564.952 2.95052 555.046 6.55052C546.888 9.51959 544.087 10.2062 540.045 10.2062C536.004 10.2062 533.203 9.51959 525.045 6.55052C515.138 2.95052 511.773 2.31959 506.623 3.08041C503.897 3.4701 501.096 4.30515 494.893 6.55052C487.355 9.29691 483.689 10.2433 480.945 10.1691C475.529 10.1691 470.57 8.39369 465.511 6.55052C455.605 2.95052 452.24 2.31959 447.089 3.08041C444.364 3.4701 441.563 4.30515 435.359 6.55052C427.201 9.51959 424.4 10.2062 420.359 10.2062C416.317 10.2062 413.516 9.51959 405.358 6.55052C399.155 4.30515 396.354 3.4701 393.628 3.08041C388.478 2.31959 385.113 2.95052 375.206 6.55052C367.048 9.51959 364.247 10.2062 360.205 10.2062C356.164 10.2062 353.363 9.51959 345.205 6.55052C339.001 4.30515 336.201 3.4701 333.475 3.08041C328.324 2.31959 324.959 2.95052 315.053 6.55052C306.895 9.51959 304.094 10.2062 300.052 10.2062C296.011 10.2062 293.21 9.51959 285.052 6.55052C275.145 2.95052 271.78 2.31959 266.63 3.08041C263.904 3.4701 261.103 4.30515 254.9 6.55052C247.362 9.29691 243.696 10.2433 240.952 10.1691C235.638 10.1691 230.732 8.3816 225.776 6.57586L225.706 6.55052C215.8 2.95052 212.435 2.31959 207.284 3.08041C204.559 3.4701 201.758 4.30515 195.554 6.55052C187.396 9.51959 184.595 10.2062 180.554 10.2062C176.512 10.2062 173.711 9.51959 165.553 6.55052C159.35 4.30515 156.549 3.4701 153.823 3.08041C148.672 2.31959 145.308 2.95052 135.401 6.55052C127.243 9.51959 124.442 10.2062 120.4 10.2062C116.359 10.2062 113.558 9.51959 105.4 6.55052C87.9533 0.235562 76.7741 10.2062 60.2472 10.2062C56.2057 10.2062 53.4048 9.51959 45.2465 6.55052C35.3401 2.95052 31.9752 2.31959 26.8246 3.08041C24.0989 3.4701 21.298 4.30515 15.0947 6.55052C7.55677 9.29691 3.89115 10.2433 1.14667 10.1691Z" fill="#3FB2F8"/>
</svg>
