<svg width="161" height="58" viewBox="0 0 161 58" fill="none" xmlns="http://www.w3.org/2000/svg">
<path d="M17.8898 23.6223C16.5307 21.3193 13.7342 19.5088 10.4096 19.4305C7.08511 19.2942 4.17994 20.9229 2.67431 23.1349C1.11309 25.3621 0.953941 28.1726 1.83307 30.7508C2.71978 33.3568 4.30625 35.4274 5.71337 36.9526C7.12048 38.4147 8.35833 39.3641 9.63661 39.4576C9.56082 39.7075 9.28294 40.4575 8.65138 40.6722C8.65138 40.6722 9.81344 41.2807 11.0134 40.6519C11.0134 40.6519 10.0787 39.9424 9.98775 39.4626C11.2382 39.407 12.5064 38.5485 13.9666 37.2152C15.4697 35.7834 17.185 33.8214 18.2384 31.276C19.2818 28.761 19.3045 25.9454 17.8898 23.6223Z" fill="white"/>
<path d="M44.6047 3.45637C38.9536 -0.323793 31.8927 -0.187434 26.575 2.58266C21.1411 5.32246 17.4503 10.6985 15.8587 16.7109C14.247 22.789 14.5122 28.5438 15.1211 33.0386C15.8082 37.4046 16.8212 40.5888 18.9407 42.1266C18.5012 42.5408 17.1067 43.7225 15.745 43.4827C15.745 43.4827 17.0385 45.9093 19.9007 45.9422C19.9007 45.9422 19.1251 43.5534 19.5496 42.5155C21.803 43.7301 25.0694 43.3766 29.2402 42.2883C33.608 41.0509 38.9915 38.9955 43.9227 35.0916C48.8008 31.2306 52.2567 25.703 52.6028 19.63C53.0222 13.6504 50.3292 7.12542 44.6047 3.45637Z" fill="white"/>
<path d="M78.3603 27.554H71.5748L69.9302 33.2633H64.4028L71.6077 11.0192H78.5674L85.9137 33.2633H80.1766L78.3603 27.554ZM72.3428 23.7915H77.5544L76.0842 19.072C75.9452 18.5442 75.728 17.7361 75.4374 16.6453C75.1444 15.5569 74.9777 14.9357 74.9297 14.7817H74.8236C74.2627 17.115 73.9141 18.5442 73.7752 19.072L72.3428 23.7915Z" fill="white"/>
<path d="M95.9176 17.1251H101.2V29.4352H105.399V17.1251H110.681V29.4352H114.877V17.1251H120.159V33.2634H95.9201V17.1251H95.9176Z" fill="white"/>
<path d="M138.626 23.7258V29.3696C138.626 31.1751 138.72 32.473 138.907 33.2634H134.114L133.798 31.6473H133.692C132.551 32.9679 130.916 33.627 128.797 33.627C127.142 33.627 125.805 33.1371 124.792 32.1573C123.779 31.1776 123.272 30.0185 123.272 28.6751C123.272 26.6298 124.163 25.0894 125.947 24.0541C127.73 23.0188 130.183 22.5037 133.308 22.5037V22.3067C133.308 20.9204 132.27 20.226 130.196 20.226C128.471 20.226 126.897 20.6224 125.475 21.4153L124.494 18.2134C126.336 17.2463 128.552 16.7614 131.141 16.7614C133.798 16.7614 135.711 17.4003 136.878 18.6755C138.043 19.9532 138.626 21.635 138.626 23.7258ZM133.485 27.3898V25.6399C130.173 25.6399 128.519 26.4884 128.519 28.1802C128.519 28.7964 128.711 29.2686 129.095 29.5994C129.479 29.9301 129.986 30.0943 130.615 30.0943C131.244 30.0943 131.815 29.9175 132.328 29.5665C132.841 29.2155 133.19 28.7736 133.377 28.2459C133.45 27.9832 133.485 27.6979 133.485 27.3898Z" fill="white"/>
<path d="M142.858 39.7985V22.5365C142.858 20.9532 142.812 19.1477 142.719 17.1225H147.337L147.582 19.3674H147.652C148.958 17.6301 150.858 16.7614 153.354 16.7614C155.312 16.7614 156.987 17.5089 158.374 19.0063C159.761 20.5037 160.455 22.4936 160.455 24.9808C160.455 27.7307 159.685 29.8594 158.146 31.367C156.608 32.8745 154.789 33.627 152.69 33.627C150.638 33.627 149.158 33.0108 148.246 31.7786H148.175V39.7985H142.858ZM148.175 24.1223V26.3343C148.175 26.708 148.211 27.0616 148.281 27.3898C148.468 28.0716 148.847 28.6398 149.418 29.0893C149.989 29.5413 150.648 29.766 151.394 29.766C152.536 29.766 153.435 29.3519 154.087 28.5287C154.738 27.703 155.067 26.5969 155.067 25.2132C155.067 23.8723 154.754 22.7814 154.122 21.9456C153.493 21.1098 152.606 20.6906 151.464 20.6906C150.717 20.6906 150.042 20.928 149.436 21.4002C148.83 21.8724 148.446 22.4835 148.281 23.2309C148.211 23.4935 148.175 23.7915 148.175 24.1223Z" fill="white"/>
<path d="M2.36106 46.4775H7.80257V53.3106L8.61602 53.3611L8.53013 56.8887H7.12301L7.02449 54.7929H2.15138L2.05286 56.8887H0.620486L0.547226 53.3611L1.24952 53.3106C1.59561 52.702 1.85834 52.0859 2.04023 51.4596C2.25496 50.6541 2.36106 49.7324 2.36106 48.6971V46.4775ZM4.10164 48.0052V49.1037C4.10164 50.0986 3.97785 51.0152 3.73028 51.8536C3.59134 52.346 3.40187 52.8207 3.16188 53.2727H5.92558V48.0052H4.10164Z" fill="white"/>
<path d="M12.2639 54.9267H12.2513C11.3469 54.9267 10.5991 54.6464 10.0105 54.0883C9.42189 53.5303 9.12885 52.7727 9.12885 51.8182C9.12885 50.8486 9.42189 50.0733 10.0105 49.4926C10.5991 48.9143 11.3822 48.6239 12.3599 48.6239C13.2719 48.6239 14.0121 48.9118 14.5805 49.4875C15.1489 50.0632 15.4318 50.8082 15.4318 51.7197C15.4318 52.7551 15.1211 53.5505 14.4996 54.101C13.8807 54.6489 13.1355 54.9267 12.2639 54.9267ZM12.2892 53.5808H12.3018C12.6732 53.5808 12.9637 53.4167 13.1784 53.0884C13.3931 52.7601 13.4992 52.3207 13.4992 51.7677C13.4992 51.2753 13.3982 50.8511 13.1961 50.4976C12.994 50.144 12.6959 49.9673 12.3018 49.9673C11.89 49.9673 11.5818 50.144 11.3772 50.4976C11.1726 50.8511 11.069 51.2778 11.069 51.7803C11.069 52.3056 11.1751 52.7374 11.3898 53.0758C11.602 53.4116 11.9026 53.5808 12.2892 53.5808Z" fill="white"/>
<path d="M20.7925 53.2475L21.0148 54.6287C20.6207 54.8181 20.0599 54.9115 19.3374 54.9115C18.3572 54.9115 17.5816 54.6338 17.0056 54.0782C16.4297 53.5227 16.1417 52.7727 16.1417 51.8283C16.1417 50.9167 16.4448 50.1541 17.0536 49.5456C17.6625 48.937 18.5088 48.6315 19.595 48.6315C20.1306 48.6315 20.6055 48.7098 21.0274 48.8663L20.7318 50.2602C20.4514 50.1365 20.1028 50.0759 19.6835 50.0759C19.1984 50.0759 18.8043 50.2324 18.5062 50.5455C18.2056 50.8587 18.0591 51.2602 18.0692 51.7551C18.0692 52.2904 18.2258 52.7046 18.5391 53C18.8523 53.2954 19.2464 53.4444 19.7239 53.4444C20.1306 53.4444 20.4868 53.3788 20.7925 53.2475Z" fill="white"/>
<path d="M21.5579 48.7577H26.9388V50.1996H25.1856V54.7878H23.3111V50.1996H21.5579V48.7577Z" fill="white"/>
<path d="M32.6936 51.2248V53.3333C32.6936 54.0075 32.7264 54.4924 32.7921 54.7878H31.102L30.9909 54.1843H30.953C30.5488 54.6767 29.9728 54.9242 29.225 54.9242C28.6415 54.9242 28.1691 54.7424 27.8129 54.3762C27.4541 54.0101 27.2773 53.5757 27.2773 53.0757C27.2773 52.3106 27.5931 51.7349 28.2221 51.3485C28.8511 50.9622 29.7176 50.7678 30.8191 50.7678V50.6945C30.8191 50.1769 30.4528 49.9168 29.7202 49.9168C29.1114 49.9168 28.5556 50.0658 28.0554 50.3612L27.7093 49.1643C28.3585 48.8032 29.1417 48.6214 30.0536 48.6214C30.9909 48.6214 31.6654 48.8613 32.0771 49.336C32.4864 49.8158 32.6936 50.4445 32.6936 51.2248ZM30.8797 52.5934V51.9394C29.7126 51.9394 29.1265 52.2551 29.1265 52.8889C29.1265 53.1187 29.1947 53.2954 29.3311 53.4192C29.4675 53.5429 29.6469 53.6035 29.8667 53.6035C30.089 53.6035 30.2911 53.5379 30.4705 53.4065C30.6524 53.2752 30.7736 53.1111 30.8418 52.9141C30.8671 52.8157 30.8797 52.7096 30.8797 52.5934Z" fill="white"/>
<path d="M33.9845 54.7651V48.8335C34.6413 48.7274 35.4522 48.6719 36.4147 48.6719C38.4054 48.6719 39.4007 49.187 39.4007 50.2147C39.4007 50.5758 39.2794 50.8662 39.0369 51.0834C38.7944 51.3006 38.5039 51.442 38.1679 51.5102V51.548C38.6277 51.6213 38.9915 51.7854 39.2592 52.0354C39.527 52.2854 39.6609 52.6136 39.6609 53.0151C39.6609 54.2575 38.4711 54.8787 36.0939 54.8787C35.2627 54.8762 34.5604 54.8383 33.9845 54.7651ZM35.8236 52.1995V53.7171C35.9549 53.7348 36.1646 53.7424 36.4526 53.7424C37.309 53.7424 37.7359 53.4823 37.7359 52.9646C37.7359 52.4546 37.2761 52.1995 36.3541 52.1995H35.8236ZM35.8362 49.8688V51.1137H36.3187C37.1423 51.1137 37.5515 50.8965 37.5515 50.4597C37.5515 50.0405 37.1903 49.8309 36.4652 49.8309C36.392 49.8309 36.3187 49.8334 36.2505 49.836C36.1798 49.841 36.1065 49.8461 36.0282 49.8537C35.9473 49.8638 35.8842 49.8688 35.8362 49.8688Z" fill="white"/>
<path d="M40.679 48.7577H42.5535V51.1617H42.7505L44.2814 48.7577H46.4666L44.246 51.3612C44.8624 51.4672 45.3677 52.0202 45.7643 53.0126C45.7896 53.0707 45.8881 53.3257 46.0599 53.7777C46.2316 54.2297 46.3756 54.5681 46.4919 54.7878H44.529C44.438 54.6388 44.2587 54.1969 43.9858 53.4545C43.7231 52.7475 43.3063 52.394 42.7404 52.394H42.556V54.7878H40.6815V48.7577H40.679Z" fill="white"/>
<path d="M52.1456 51.2248V53.3333C52.1456 54.0075 52.1784 54.4924 52.2441 54.7878H50.554L50.4429 54.1843H50.405C50.0008 54.6767 49.4248 54.9242 48.677 54.9242C48.0935 54.9242 47.6211 54.7424 47.2649 54.3762C46.9061 54.0101 46.7293 53.5757 46.7293 53.0757C46.7293 52.3106 47.0451 51.7349 47.6741 51.3485C48.3032 50.9622 49.1697 50.7678 50.2711 50.7678V50.6945C50.2711 50.1769 49.9048 49.9168 49.1722 49.9168C48.5634 49.9168 48.0076 50.0658 47.5074 50.3612L47.1613 49.1643C47.8105 48.8032 48.5937 48.6214 49.5056 48.6214C50.4429 48.6214 51.1174 48.8613 51.5292 49.336C51.9384 49.8158 52.1456 50.4445 52.1456 51.2248ZM50.3317 52.5934V51.9394C49.1646 51.9394 48.5785 52.2551 48.5785 52.8889C48.5785 53.1187 48.6467 53.2954 48.7831 53.4192C48.9196 53.5429 49.0989 53.6035 49.3187 53.6035C49.541 53.6035 49.7431 53.5379 49.9225 53.4065C50.1044 53.2752 50.2256 53.1111 50.2938 52.9141C50.3191 52.8157 50.3317 52.7096 50.3317 52.5934Z" fill="white"/>
<path d="M56.1193 54.7651V48.8335C56.7761 48.7274 57.5871 48.6719 58.5496 48.6719C60.5402 48.6719 61.5356 49.187 61.5356 50.2147C61.5356 50.5758 61.4143 50.8662 61.1718 51.0834C60.9293 51.3006 60.6388 51.442 60.3028 51.5102V51.548C60.7625 51.6213 61.1263 51.7854 61.3941 52.0354C61.6619 52.2854 61.7958 52.6136 61.7958 53.0151C61.7958 54.2575 60.6059 54.8787 58.2287 54.8787C57.3976 54.8762 56.6928 54.8383 56.1193 54.7651ZM57.9559 52.1995V53.7171C58.0873 53.7348 58.2969 53.7424 58.5849 53.7424C59.4413 53.7424 59.8683 53.4823 59.8683 52.9646C59.8683 52.4546 59.4085 52.1995 58.4864 52.1995H57.9559ZM57.9685 49.8688V51.1137H58.451C59.2746 51.1137 59.6838 50.8965 59.6838 50.4597C59.6838 50.0405 59.3226 49.8309 58.5976 49.8309C58.5243 49.8309 58.451 49.8334 58.3828 49.836C58.3121 49.841 58.2388 49.8461 58.1605 49.8537C58.0822 49.8638 58.019 49.8688 57.9685 49.8688Z" fill="white"/>
<path d="M65.5952 54.9267H65.5826C64.6782 54.9267 63.9304 54.6464 63.3418 54.0883C62.7532 53.5303 62.4602 52.7727 62.4602 51.8182C62.4602 50.8486 62.7532 50.0733 63.3418 49.4926C63.9304 48.9143 64.7136 48.6239 65.6912 48.6239C66.6032 48.6239 67.3434 48.9118 67.9118 49.4875C68.4802 50.0632 68.7631 50.8082 68.7631 51.7197C68.7631 52.7551 68.4524 53.5505 67.8309 54.101C67.212 54.6489 66.4668 54.9267 65.5952 54.9267ZM65.618 53.5808H65.6306C66.002 53.5808 66.2925 53.4167 66.5072 53.0884C66.7219 52.7601 66.828 52.3207 66.828 51.7677C66.828 51.2753 66.727 50.8511 66.5249 50.4976C66.3228 50.144 66.0247 49.9673 65.6306 49.9673C65.2188 49.9673 64.9106 50.144 64.706 50.4976C64.5014 50.8511 64.3978 51.2778 64.3978 51.7803C64.3978 52.3056 64.5039 52.7374 64.7186 53.0758C64.9308 53.4116 65.2315 53.5808 65.618 53.5808Z" fill="white"/>
<path d="M70.2511 52.2626L70.2384 51.1162H71.1403C71.5091 51.1162 71.7921 51.0607 71.9866 50.9496C72.1786 50.8385 72.2771 50.6971 72.2771 50.5253C72.2771 50.3435 72.1887 50.1996 72.0119 50.0935C71.835 49.9875 71.5824 49.9345 71.254 49.9345C70.7184 49.9345 70.2081 50.0733 69.7231 50.3536L69.3644 49.2678C70.0465 48.8562 70.865 48.6517 71.8199 48.6517C72.4691 48.6517 73.0375 48.7805 73.5225 49.0405C74.0076 49.3006 74.2501 49.7097 74.2501 50.2678C74.2501 50.6213 74.1213 50.9092 73.8611 51.1314C73.6009 51.3536 73.3002 51.5051 72.9541 51.5884V51.6389C73.3811 51.6894 73.7499 51.8308 74.0581 52.0657C74.3663 52.3005 74.5204 52.6263 74.5204 53.0455C74.5204 53.399 74.4269 53.7045 74.2375 53.957C74.048 54.2121 73.7954 54.4065 73.4796 54.5378C73.1638 54.6691 72.843 54.7651 72.5222 54.8206C72.2013 54.8762 71.8729 54.9065 71.5344 54.9065C70.6123 54.9065 69.8267 54.7146 69.1774 54.3257L69.5715 53.1667C70.0566 53.4293 70.6325 53.5707 71.2995 53.5858C71.6784 53.5858 71.9664 53.5252 72.1634 53.4065C72.3605 53.2879 72.459 53.1338 72.459 52.9444C72.459 52.4924 72.022 52.2652 71.1504 52.2652H70.2511V52.2626Z" fill="white"/>
<path d="M76.506 48.7577H81.3185V53.4697L81.9854 53.4949L81.9122 56.7397H80.4924L80.4318 54.7903H76.6197L76.5464 56.7397H75.1267L75.0762 53.5202L75.6446 53.4697C75.9073 53.0581 76.1044 52.6389 76.2357 52.2121C76.4176 51.5556 76.506 50.8965 76.506 50.2375V48.7577ZM78.1355 50.1289V50.8309C78.1355 51.3081 78.0622 51.8308 77.9131 52.3965C77.8399 52.7096 77.6984 53.0555 77.4938 53.4318H79.492V50.1264H78.1355V50.1289Z" fill="white"/>
<path d="M82.1117 48.7577H84.1959L85.0978 51.7298C85.2291 52.1818 85.3276 52.5556 85.3933 52.8535H85.4312C85.4641 52.7222 85.5146 52.5126 85.5853 52.2248C85.656 51.9369 85.6939 51.7677 85.7015 51.7197L86.4417 48.7602H88.4526L87.0455 52.7323C86.6337 53.8838 86.2674 54.7524 85.9466 55.3358C85.6257 55.9191 85.2847 56.3711 84.9234 56.6918C84.3803 57.1766 83.7765 57.4518 83.1096 57.5175L82.7155 55.9393C82.9782 55.8812 83.2511 55.7751 83.529 55.6186C83.8498 55.4469 84.11 55.1944 84.307 54.8661C84.3727 54.76 84.4056 54.6691 84.4056 54.5959C84.4056 54.505 84.3803 54.404 84.3323 54.2878L82.1117 48.7577Z" fill="white"/>
<path d="M89.1473 48.7577H91.0117V53.3586H92.492V48.7577H94.3564V53.3586H95.8368V48.7577H97.7011V54.7878H89.1498V48.7577H89.1473Z" fill="white"/>
<path d="M99.0325 48.7577H100.907V50.9395H102.807V48.7577H104.681V54.7878H102.807V52.394H100.907V54.7878H99.0325V48.7577Z" fill="white"/>
<path d="M106.025 48.7577H107.9V50.5455C108.228 50.495 108.554 50.4723 108.875 50.4723C109.622 50.4723 110.264 50.644 110.795 50.99C111.325 51.3359 111.59 51.8662 111.59 52.5808C111.59 53.2727 111.315 53.8106 110.764 54.1969C110.123 54.6413 109.213 54.8636 108.038 54.8636C107.324 54.8636 106.652 54.8257 106.028 54.7524V48.7577H106.025ZM107.889 51.8056V53.5681C108.104 53.5858 108.294 53.5934 108.458 53.5934C108.812 53.5934 109.112 53.5176 109.36 53.3661C109.607 53.2146 109.731 52.9747 109.731 52.6439C109.731 52.3308 109.615 52.1036 109.38 51.9596C109.145 51.8157 108.865 51.745 108.534 51.745C108.291 51.7425 108.079 51.7652 107.889 51.8056ZM112.257 48.7577H114.132V54.7878H112.257V48.7577Z" fill="white"/>
<path d="M114.869 48.7577H116.966L117.557 49.7678C117.674 49.9723 117.838 50.2728 118.05 50.6693H118.075C118.232 50.3486 118.388 50.0355 118.545 49.7324L119.076 48.7577H121.112L119.126 51.6314L121.137 54.7878H119.015L118.411 53.702C118.222 53.3813 118.065 53.0732 117.941 52.7778H117.903C117.871 52.851 117.719 53.1591 117.446 53.702L116.878 54.7878H114.816L116.865 51.7046L114.869 48.7577Z" fill="white"/>
<path d="M124.419 48.7577H126.283V53.3586H127.763V48.7577H129.628V53.3586H131.108V48.7577H132.972V54.7878H124.421V48.7577H124.419Z" fill="white"/>
<path d="M139.354 51.2248V53.3333C139.354 54.0075 139.387 54.4924 139.452 54.7878H137.762L137.651 54.1843H137.613C137.209 54.6767 136.633 54.9242 135.885 54.9242C135.302 54.9242 134.829 54.7424 134.473 54.3762C134.114 54.0101 133.937 53.5757 133.937 53.0757C133.937 52.3106 134.253 51.7349 134.882 51.3485C135.511 50.9622 136.378 50.7678 137.479 50.7678V50.6945C137.479 50.1769 137.113 49.9168 136.38 49.9168C135.771 49.9168 135.216 50.0658 134.716 50.3612L134.369 49.1643C135.019 48.8032 135.802 48.6214 136.714 48.6214C137.651 48.6214 138.326 48.8613 138.737 49.336C139.147 49.8158 139.354 50.4445 139.354 51.2248ZM137.54 52.5934V51.9394C136.373 51.9394 135.787 52.2551 135.787 52.8889C135.787 53.1187 135.855 53.2954 135.991 53.4192C136.128 53.5429 136.307 53.6035 136.527 53.6035C136.749 53.6035 136.951 53.5379 137.131 53.4065C137.312 53.2752 137.436 53.1111 137.502 52.9141C137.527 52.8157 137.54 52.7096 137.54 52.5934Z" fill="white"/>
<path d="M140.645 57.2322V50.7829C140.645 50.192 140.627 49.5178 140.594 48.7603H142.223L142.309 49.5986H142.335C142.794 48.9496 143.466 48.6239 144.346 48.6239C145.035 48.6239 145.626 48.9042 146.116 49.4623C146.606 50.0203 146.852 50.7652 146.852 51.6945C146.852 52.7222 146.579 53.5177 146.038 54.0808C145.495 54.6439 144.853 54.9267 144.113 54.9267C143.388 54.9267 142.868 54.6969 142.547 54.2348H142.522V57.2322H140.645ZM142.519 51.3738V52.1995C142.519 52.3384 142.532 52.4697 142.557 52.5935C142.623 52.8485 142.757 53.0606 142.959 53.2298C143.161 53.399 143.393 53.4823 143.656 53.4823C144.058 53.4823 144.376 53.3283 144.606 53.0202C144.836 52.7121 144.952 52.298 144.952 51.7803C144.952 51.2778 144.841 50.8713 144.618 50.5607C144.396 50.2501 144.083 50.091 143.681 50.091C143.418 50.091 143.178 50.1794 142.966 50.3562C142.751 50.5329 142.618 50.7602 142.559 51.0405C142.532 51.139 142.519 51.2501 142.519 51.3738Z" fill="white"/>
<path d="M150.694 54.9267H150.681C149.777 54.9267 149.029 54.6464 148.443 54.0883C147.854 53.5303 147.561 52.7727 147.561 51.8182C147.561 50.8486 147.854 50.0733 148.443 49.4926C149.032 48.9143 149.815 48.6239 150.792 48.6239C151.704 48.6239 152.445 48.9118 153.013 49.4875C153.581 50.0632 153.864 50.8082 153.864 51.7197C153.864 52.7551 153.554 53.5505 152.932 54.101C152.313 54.6489 151.565 54.9267 150.694 54.9267ZM150.719 53.5808H150.732C151.103 53.5808 151.394 53.4167 151.608 53.0884C151.823 52.7601 151.929 52.3207 151.929 51.7677C151.929 51.2753 151.828 50.8511 151.626 50.4976C151.424 50.144 151.126 49.9673 150.732 49.9673C150.32 49.9673 150.012 50.144 149.807 50.4976C149.603 50.8511 149.499 51.2778 149.499 51.7803C149.499 52.3056 149.605 52.7374 149.82 53.0758C150.035 53.4141 150.333 53.5808 150.719 53.5808Z" fill="white"/>
<path d="M154.877 54.7651V48.8335C155.534 48.7274 156.345 48.6719 157.308 48.6719C159.298 48.6719 160.294 49.187 160.294 50.2147C160.294 50.5758 160.172 50.8662 159.93 51.0834C159.687 51.3006 159.397 51.442 159.061 51.5102V51.548C159.521 51.6213 159.884 51.7854 160.152 52.0354C160.42 52.2854 160.554 52.6136 160.554 53.0151C160.554 54.2575 159.364 54.8787 156.987 54.8787C156.156 54.8762 155.451 54.8383 154.877 54.7651ZM156.714 52.1995V53.7171C156.845 53.7348 157.055 53.7424 157.343 53.7424C158.199 53.7424 158.626 53.4823 158.626 52.9646C158.626 52.4546 158.167 52.1995 157.244 52.1995H156.714ZM156.727 49.8688V51.1137H157.209C158.033 51.1137 158.442 50.8965 158.442 50.4597C158.442 50.0405 158.081 49.8309 157.356 49.8309C157.282 49.8309 157.209 49.8334 157.141 49.836C157.07 49.841 156.997 49.8461 156.919 49.8537C156.84 49.8612 156.777 49.8688 156.727 49.8688Z" fill="white"/>
</svg>
