<svg width="14" height="14" viewBox="0 0 14 14" fill="none" xmlns="http://www.w3.org/2000/svg">
<path fill-rule="evenodd" clip-rule="evenodd" d="M3.9597 1.75C3.48224 1.74999 3.08817 1.74999 2.76733 1.77663C2.43405 1.80431 2.12789 1.86373 1.8411 2.0127C1.41493 2.23408 1.06745 2.58156 0.846078 3.00773C0.697101 3.29452 0.637683 3.60067 0.610003 3.93396C0.583361 4.25479 0.583367 4.64885 0.583374 5.12632V8.75C0.583374 9.86638 1.36737 10.7996 2.41483 11.0292C2.63912 11.737 3.30134 12.25 4.08337 12.25C4.84534 12.25 5.49356 11.763 5.7338 11.0833H8.84962C9.08983 11.763 9.73809 12.25 10.5 12.25C11.3185 12.25 12.0057 11.6881 12.1971 10.929C12.8858 10.6176 13.3286 9.87478 13.2069 9.07118L13.1255 8.53382C12.9157 7.1498 12.3974 5.8307 11.6089 4.67416L11.503 4.51888C11.0684 3.88141 10.3467 3.5 9.57517 3.5H8.75004C8.72052 3.5 8.69124 3.5011 8.66225 3.50326C8.62486 3.33127 8.56985 3.16653 8.48737 3.00773C8.26599 2.58156 7.9185 2.23408 7.49232 2.0127C7.20555 1.86373 6.89936 1.80431 6.5661 1.77663C6.24527 1.74999 5.85117 1.74999 5.37372 1.75H3.9597ZM8.75004 5.0842C8.75004 5.09816 8.75004 5.1122 8.75004 5.1263V9.91667H8.84962C9.08983 9.23697 9.73809 8.75 10.5 8.75C11.1353 8.75 11.6915 9.08851 11.9982 9.59496C12.0503 9.49136 12.0723 9.37084 12.0534 9.24595L11.972 8.70858C11.7885 7.49758 11.335 6.34334 10.6449 5.33139L10.5391 5.17611C10.3218 4.85737 9.96092 4.66667 9.57517 4.66667H8.75004V5.0842ZM7.58337 5.15083C7.58337 4.64274 7.58291 4.29734 7.56074 4.03051C7.53916 3.77068 7.50007 3.63803 7.45201 3.54553C7.34135 3.33245 7.16757 3.15871 6.95448 3.04802C6.86202 2.99997 6.72937 2.96087 6.4695 2.93929C6.20268 2.91713 5.85729 2.91667 5.34921 2.91667H3.98421C3.47611 2.91667 3.13071 2.91713 2.86389 2.93929C2.60405 2.96087 2.47141 2.99997 2.3789 3.04802C2.16582 3.15871 1.99208 3.33245 1.88139 3.54553C1.83334 3.63803 1.79425 3.77068 1.77267 4.03051C1.75051 4.29734 1.75004 4.64274 1.75004 5.15083V8.75C1.75004 9.2351 2.04614 9.65107 2.46745 9.82701C2.73116 9.19456 3.35535 8.75 4.08337 8.75C4.84534 8.75 5.49356 9.23697 5.7338 9.91667H7.58337V5.15083ZM4.66671 10.5C4.66671 10.1778 4.40554 9.91667 4.08337 9.91667C3.76121 9.91667 3.50004 10.1778 3.50004 10.5C3.50004 10.8222 3.76121 11.0833 4.08337 11.0833C4.40554 11.0833 4.66671 10.8222 4.66671 10.5ZM9.91671 10.5C9.91671 10.1778 10.1779 9.91667 10.5 9.91667C10.8222 9.91667 11.0834 10.1778 11.0834 10.5C11.0834 10.8222 10.8222 11.0833 10.5 11.0833C10.1779 11.0833 9.91671 10.8222 9.91671 10.5Z" fill="#8E8E8E"/>
</svg>
