<svg width="25" height="25" viewBox="0 0 25 25" fill="none" xmlns="http://www.w3.org/2000/svg">
<path fill-rule="evenodd" clip-rule="evenodd" d="M19.3166 15.2066C20.3056 13.7265 20.8334 11.9865 20.8334 10.2064V8.44249C20.8334 8.06372 21.0474 7.71746 21.3862 7.54807L22.2806 7.10085C22.7746 6.85386 22.9748 6.25319 22.7278 5.75921C22.4808 5.26523 21.8802 5.06501 21.3862 5.312L20.4918 5.75921C19.4754 6.26739 18.8334 7.30618 18.8334 8.44249V9.20642H12.8334V2.20642C12.8334 1.65414 12.3857 1.20642 11.8334 1.20642C10.0533 1.20642 8.31329 1.73426 6.83324 2.7232C5.3532 3.71213 4.19965 5.11774 3.51846 6.76227C2.83727 8.40681 2.65904 10.2164 3.00631 11.9623C3.35358 13.7081 4.21074 15.3117 5.46942 16.5704C5.71616 16.8172 5.97617 17.0485 6.24791 17.2635C4.87133 17.5359 3.83338 18.7499 3.83338 20.2064C3.83338 21.8633 5.17652 23.2064 6.83338 23.2064C8.49023 23.2064 9.83338 21.8633 9.83338 20.2064C9.83338 19.7418 9.72772 19.3017 9.53913 18.9091C9.71692 18.956 9.89648 18.9975 10.0776 19.0335C11.4247 19.3015 12.8097 19.2566 14.1276 18.9091C13.9391 19.3017 13.8334 19.7418 13.8334 20.2064C13.8334 21.8633 15.1765 23.2064 16.8334 23.2064C18.4903 23.2064 19.8334 21.8633 19.8334 20.2064C19.8334 18.7499 18.7954 17.5359 17.4189 17.2635C18.1509 16.6841 18.7923 15.9912 19.3166 15.2066ZM17.6168 14.0708C18.1945 13.2063 18.5686 12.2271 18.7168 11.2064H4.94994C4.96727 11.3257 4.98773 11.4448 5.01133 11.5634C5.27972 12.9127 5.94219 14.1521 6.91496 15.1249C7.88773 16.0976 9.12712 16.7601 10.4764 17.0285C11.8257 17.2969 13.2242 17.1591 14.4952 16.6327C15.7662 16.1062 16.8525 15.2147 17.6168 14.0708ZM10.8334 3.32298V9.20642H4.94994C5.03242 8.63865 5.18526 8.08029 5.40715 7.5446C5.93361 6.27361 6.82514 5.18728 7.969 4.42298C8.83348 3.84535 9.81274 3.47126 10.8334 3.32298ZM6.83338 21.2141C6.27687 21.2141 5.82573 20.763 5.82573 20.2064C5.82573 19.6499 6.27687 19.1988 6.83338 19.1988C7.38988 19.1988 7.84102 19.6499 7.84102 20.2064C7.84102 20.763 7.38988 21.2141 6.83338 21.2141ZM15.8258 20.2064C15.8258 20.763 16.2769 21.2141 16.8334 21.2141C17.3899 21.2141 17.841 20.763 17.841 20.2064C17.841 19.6499 17.3899 19.1988 16.8334 19.1988C16.2769 19.1988 15.8258 19.6499 15.8258 20.2064Z" fill="#169EF1"/>
</svg>
