<svg width="36" height="25" viewBox="0 0 36 25" fill="none" xmlns="http://www.w3.org/2000/svg">
<path fill-rule="evenodd" clip-rule="evenodd" d="M17.28 8.80531C18.1748 12.0403 16.2766 15.7627 13.0275 16.6053C9.7785 17.4479 6.40904 15.0914 5.51418 11.8564C4.61932 8.6214 6.52775 5.31591 9.77679 4.47337C13.0258 3.63083 16.3851 5.57032 17.28 8.80531ZM10.9019 6.89819C10.5769 6.98244 10.3819 7.31414 10.4661 7.63905C10.5503 7.96394 10.882 8.15904 11.2069 8.07479C12.175 7.82373 13.1794 8.40361 13.4459 9.36749C13.5355 9.69098 13.8703 9.88068 14.1938 9.7912C14.5173 9.70171 14.7069 9.36693 14.6175 9.04343C14.1739 7.43993 12.5122 6.48058 10.9019 6.89819Z" fill="white"/>
<path d="M14.9209 16.6973C15.4037 17.4591 15.0891 18.4405 14.3041 18.8317L14.6057 19.9574C14.6926 20.2816 14.5002 20.6148 14.176 20.7017C13.8518 20.7886 13.5185 20.5962 13.4317 20.272L13.13 19.1463C12.2546 19.2 11.4915 18.5074 11.5287 17.6062L11.5296 17.588C12.0902 17.6003 12.6605 17.5374 13.231 17.3895C13.8357 17.2327 14.3975 16.991 14.9101 16.6805C14.9138 16.6861 14.9174 16.6917 14.9209 16.6973Z" fill="white"/>
<path fill-rule="evenodd" clip-rule="evenodd" d="M29.4295 9.7667C29.4629 13.9087 26.0112 17.7396 21.8692 17.7062C17.7271 17.6728 14.4633 13.7877 14.4299 9.64566C14.3965 5.50366 17.7271 2.17301 21.8692 2.20643C26.0112 2.23985 29.396 5.6247 29.4295 9.7667ZM22.4358 5.4562C22.0216 5.45286 21.6831 5.78593 21.6797 6.20013C21.6764 6.61433 22.0094 6.95281 22.4236 6.95616C23.6578 6.96611 24.6698 7.97812 24.6797 9.21223C24.6831 9.62643 25.0216 9.9595 25.4358 9.95616C25.85 9.95281 26.183 9.61433 26.1797 9.20013C26.1631 7.14706 24.4888 5.47277 22.4358 5.4562Z" fill="white"/>
<path d="M24.0967 18.4206C24.4289 19.4829 23.7405 20.5523 22.6798 20.7678V22.206C22.6798 22.6202 22.344 22.956 21.9298 22.956C21.5156 22.956 21.1798 22.6202 21.1798 22.206V20.7678C20.1191 20.5523 19.4306 19.4829 19.7628 18.4206L19.7697 18.3992C20.4341 18.5929 21.134 18.7001 21.8612 18.706C22.6322 18.7122 23.379 18.6035 24.0892 18.3971C24.0919 18.405 24.0943 18.4128 24.0967 18.4206Z" fill="white"/>
</svg>
