<svg width="25" height="25" viewBox="0 0 25 25" fill="none" xmlns="http://www.w3.org/2000/svg">
<path d="M12.6667 9.20618C12.1362 9.20618 11.6275 8.99546 11.2525 8.62039C10.8774 8.24532 10.6667 7.73661 10.6667 7.20618C10.6667 5.54618 12.6667 3.20618 12.6667 3.20618C12.6667 3.20618 14.6667 5.54618 14.6667 7.20618C14.6667 7.73661 14.456 8.24532 14.0809 8.62039C13.7058 8.99546 13.1971 9.20618 12.6667 9.20618ZM12.6667 9.20618V13.2062" stroke="#169EF1" stroke-width="2" stroke-linecap="round" stroke-linejoin="round"/>
<path d="M3.66666 21.2062H21.6667M20.6667 21.2062H4.66666V14.2062C4.66666 13.941 4.77202 13.6866 4.95956 13.4991C5.14709 13.3115 5.40145 13.2062 5.66666 13.2062H19.6667C19.9319 13.2062 20.1862 13.3115 20.3738 13.4991C20.5613 13.6866 20.6667 13.941 20.6667 14.2062V21.2062Z" stroke="#169EF1" stroke-width="2" stroke-linecap="round" stroke-linejoin="round"/>
</svg>
