<svg width="40" height="40" viewBox="0 0 40 40" fill="none" xmlns="http://www.w3.org/2000/svg">
<path d="M17.7 23.3333L16.0334 26.6667H31.6667C32.1087 26.6667 32.5327 26.8423 32.8452 27.1548C33.1578 27.4674 33.3334 27.8913 33.3334 28.3333C33.3334 28.7754 33.1578 29.1993 32.8452 29.5119C32.5327 29.8244 32.1087 30 31.6667 30H16.0334C15.466 29.9997 14.9082 29.8546 14.4126 29.5784C13.917 29.3023 13.5001 28.9042 13.2013 28.4219C12.9026 27.9395 12.7319 27.389 12.7054 26.8222C12.679 26.2555 12.7976 25.6914 13.05 25.1833L14.8334 21.6667L8.86671 6.66668H5.00004C4.55801 6.66668 4.13409 6.49108 3.82153 6.17852C3.50897 5.86596 3.33337 5.44204 3.33337 5.00001C3.33337 4.55798 3.50897 4.13406 3.82153 3.8215C4.13409 3.50894 4.55801 3.33335 5.00004 3.33335H8.86671C9.5343 3.3327 10.1867 3.53253 10.7394 3.90695C11.2921 4.28137 11.7197 4.81313 11.9667 5.43335L13.1334 8.33334H34.6667H34.8167C35.0862 8.29539 35.3608 8.32401 35.6167 8.41668C35.8204 8.4975 36.0061 8.61769 36.1633 8.77037C36.3205 8.92305 36.446 9.10522 36.5327 9.30647C36.6194 9.50771 36.6655 9.72407 36.6685 9.94318C36.6715 10.1623 36.6312 10.3798 36.55 10.5833L31.8834 22.25C31.7599 22.5601 31.5461 22.826 31.2697 23.0132C30.9934 23.2004 30.6672 23.3003 30.3334 23.3L17.7 23.3333ZM17.5 31.6667C17.0056 31.6667 16.5222 31.8133 16.1111 32.088C15.7 32.3627 15.3796 32.7532 15.1903 33.21C15.0011 33.6668 14.9516 34.1694 15.0481 34.6544C15.1445 35.1394 15.3826 35.5848 15.7323 35.9344C16.0819 36.2841 16.5274 36.5222 17.0123 36.6186C17.4973 36.7151 17.9999 36.6656 18.4567 36.4764C18.9136 36.2872 19.304 35.9667 19.5787 35.5556C19.8534 35.1445 20 34.6611 20 34.1667C20 33.5036 19.7366 32.8678 19.2678 32.3989C18.799 31.9301 18.1631 31.6667 17.5 31.6667ZM27.5 31.6667C27.0056 31.6667 26.5222 31.8133 26.1111 32.088C25.7 32.3627 25.3796 32.7532 25.1903 33.21C25.0011 33.6668 24.9516 34.1694 25.0481 34.6544C25.1445 35.1394 25.3826 35.5848 25.7323 35.9344C26.0819 36.2841 26.5274 36.5222 27.0123 36.6186C27.4973 36.7151 27.9999 36.6656 28.4567 36.4764C28.9136 36.2872 29.304 35.9667 29.5787 35.5556C29.8534 35.1445 30 34.6611 30 34.1667C30 33.5036 29.7366 32.8678 29.2678 32.3989C28.799 31.9301 28.1631 31.6667 27.5 31.6667Z" fill="currentColor"/>
<path d="M27.7812 13.7988H27.8926C28.3965 13.7988 28.8223 13.7344 29.1699 13.6055C29.5215 13.4766 29.8047 13.2949 30.0195 13.0605C30.2383 12.8223 30.3965 12.5391 30.4941 12.2109C30.5957 11.8789 30.6465 11.5117 30.6465 11.1094V9.5625C30.6465 9.23438 30.6133 8.94727 30.5469 8.70117C30.4805 8.45117 30.3867 8.24219 30.2656 8.07422C30.1484 7.90625 30.0098 7.78125 29.8496 7.69922C29.6895 7.61328 29.5176 7.57031 29.334 7.57031C29.1309 7.57031 28.9512 7.61719 28.7949 7.71094C28.6387 7.80469 28.5059 7.93359 28.3965 8.09766C28.291 8.25781 28.209 8.44336 28.1504 8.6543C28.0957 8.86523 28.0684 9.08789 28.0684 9.32227C28.0684 9.54883 28.0938 9.76562 28.1445 9.97266C28.1992 10.1797 28.2793 10.3633 28.3848 10.5234C28.4941 10.6836 28.6309 10.8105 28.7949 10.9043C28.959 10.9941 29.1504 11.0391 29.3691 11.0391C29.5762 11.0391 29.7637 11 29.9316 10.9219C30.1035 10.8398 30.252 10.7324 30.377 10.5996C30.502 10.4629 30.5977 10.3125 30.6641 10.1484C30.7344 9.98047 30.7734 9.81055 30.7812 9.63867L31.3262 9.87305C31.3262 10.1582 31.2656 10.4395 31.1445 10.7168C31.0273 10.9941 30.8613 11.2461 30.6465 11.4727C30.4355 11.6953 30.1895 11.875 29.9082 12.0117C29.627 12.1445 29.3242 12.2109 29 12.2109C28.5977 12.2109 28.2422 12.1367 27.9336 11.9883C27.625 11.8398 27.3652 11.6348 27.1543 11.373C26.9473 11.1074 26.791 10.8027 26.6855 10.459C26.5801 10.1113 26.5273 9.74023 26.5273 9.3457C26.5273 8.93555 26.5918 8.55078 26.7207 8.19141C26.8496 7.82812 27.0352 7.50977 27.2773 7.23633C27.5234 6.95898 27.8203 6.74219 28.168 6.58594C28.5156 6.42578 28.9062 6.3457 29.3398 6.3457C29.7891 6.3457 30.1895 6.43359 30.541 6.60938C30.8926 6.78516 31.1914 7.0293 31.4375 7.3418C31.6836 7.65039 31.8711 8.01562 32 8.4375C32.1328 8.85938 32.1992 9.32031 32.1992 9.82031V10.3652C32.1992 10.8926 32.1465 11.3926 32.041 11.8652C31.9355 12.3379 31.7734 12.7695 31.5547 13.1602C31.3359 13.5508 31.0566 13.8887 30.7168 14.1738C30.3809 14.459 29.9785 14.6797 29.5098 14.8359C29.0449 14.9883 28.5137 15.0645 27.916 15.0645H27.7812V13.7988Z" fill="currentColor"/>
</svg>
