<svg width="10" height="10" viewBox="0 0 10 10" fill="none" xmlns="http://www.w3.org/2000/svg">
<path d="M8.64404 1.38687C8.48133 1.22415 8.21749 1.22415 8.05479 1.38687L5.01545 4.4262L1.97614 1.38687C1.81342 1.22415 1.5496 1.22415 1.38689 1.38687C1.22417 1.54959 1.22417 1.81341 1.38689 1.97613L4.4262 5.01545L1.3869 8.05474C1.22417 8.21749 1.22417 8.48128 1.3869 8.64403C1.54961 8.80674 1.81343 8.80674 1.97615 8.64403L5.01545 5.6047L8.05479 8.64403C8.21749 8.80674 8.48133 8.80674 8.64404 8.64403C8.80675 8.48128 8.80675 8.21749 8.64404 8.05478L5.6047 5.01545L8.64404 1.97613C8.80675 1.81341 8.80675 1.54959 8.64404 1.38687Z" fill="#0F0F0F"/>
</svg>
