<svg width="25" height="25" viewBox="0 0 25 25" fill="none" xmlns="http://www.w3.org/2000/svg">
<path d="M12.4097 3.53856L12.1255 3.01196L11.8412 3.53856L11.3213 3.82657L11.8412 4.11454L12.1255 4.64114L12.4097 4.11454L12.9296 3.82657L12.4097 3.53856Z" fill="#169EF1"/>
<path d="M21.7258 3.10672L20.7043 3.40977L19.6829 3.10672L19.982 4.14149L19.6829 5.17622L20.7043 4.87317L21.7258 5.17622L21.4266 4.14149L21.7258 3.10672Z" fill="#169EF1"/>
<path d="M13.3377 17.8381L12.9246 17.0729L12.5115 17.8381L11.7561 18.2566L12.5115 18.6751L12.9246 19.4403L13.3377 18.6751L14.093 18.2566L13.3377 17.8381Z" fill="#169EF1"/>
<path d="M21.4888 20.5756L21.2092 20.0578L20.9296 20.5756L20.4184 20.8589L20.9296 21.1421L21.2092 21.66L21.4888 21.1421L22 20.8589L21.4888 20.5756Z" fill="#169EF1"/>
<path d="M9.70571 19.4403L8.68305 19.7437L7.66036 19.4403L7.9599 20.4763L7.66036 21.5123L8.68305 21.2088L9.70571 21.5123L9.40614 20.4763L9.70571 19.4403Z" fill="#169EF1"/>
<path d="M11.3205 6.11403C11.3185 5.87825 11.1884 5.65954 10.9821 5.54817L4.94102 2.2825C4.74282 2.17532 4.50344 2.18137 4.31076 2.29848C4.11796 2.41563 4.00004 2.62657 4.00004 2.85426C4.00004 4.80157 5.03044 6.58407 6.69759 7.53892L4.33864 8.81412C4.13018 8.92681 4.00004 9.14662 4.00004 9.38596C4.00004 9.73842 4.00004 12.0201 4.00004 12.2866C4.00004 12.526 4.13022 12.7458 4.33864 12.8585L6.72971 14.151C5.04379 15.1013 4 16.894 4 18.8538C4 19.0815 4.11792 19.2925 4.31068 19.4096C4.50329 19.5267 4.74259 19.5329 4.94095 19.4256L10.9821 16.1599C11.1858 16.0498 11.3206 15.8449 11.3206 15.5523C11.3206 15.3028 11.3206 12.9808 11.3206 12.7121C11.3206 12.4727 11.1905 12.2529 10.9821 12.1402L8.5698 10.8362L10.9821 9.53224C11.187 9.42154 11.3206 9.2015 11.3206 8.96041C11.3206 8.93025 11.3208 6.14427 11.3205 6.11403ZM10.0411 13.1009C10.0411 13.8665 10.0411 13.7023 10.0411 14.4719L5.27962 11.8979C5.27962 11.3896 5.27962 11.0394 5.27962 10.5269L10.0411 13.1009ZM10.0411 7.8797L7.41454 6.45982C6.44884 5.93782 5.7514 5.05556 5.44805 4.02587L10.0411 6.50876V7.8797Z" fill="#169EF1"/>
<path d="M21.3441 11.6645C21.3441 11.6393 21.3442 8.84404 21.344 8.81877C21.342 8.5742 21.2046 8.36009 21.0056 8.25248L14.9645 4.98677C14.7663 4.87962 14.5269 4.88567 14.3342 5.00278C14.1414 5.11989 14.0235 5.33091 14.0235 5.55856C14.0235 7.50587 15.0539 9.28834 16.7211 10.2432L14.3622 11.5183C14.1537 11.631 14.0236 11.8508 14.0236 12.0902C14.0236 12.3568 14.0236 14.6389 14.0236 14.9909C14.0236 15.2302 14.1537 15.45 14.3622 15.5627L16.7533 16.8553C15.0673 17.8055 14.0236 19.5982 14.0236 21.5581C14.0236 21.7857 14.1415 21.9968 14.3342 22.1138C14.5268 22.2309 14.7662 22.2371 14.9645 22.1299L21.0056 18.8641C21.2094 18.7539 21.3441 18.549 21.3441 18.2565V15.4521C21.3441 15.1584 21.2081 14.954 21.0055 14.8445L18.5933 13.5405L21.0055 12.2365C21.2123 12.1249 21.3441 11.9042 21.3441 11.6645ZM20.0646 15.8052C20.0646 16.5708 20.0646 16.4065 20.0646 17.1761L15.3031 14.6021C15.3031 14.0938 15.3031 13.7437 15.3031 13.2312L20.0646 15.8052ZM20.0646 10.584L17.438 9.16408C16.4723 8.64209 15.7748 7.75986 15.4715 6.73009L20.0646 9.21299C20.0646 9.71728 20.0646 10.0931 20.0646 10.584Z" fill="#169EF1"/>
</svg>
