<svg width="25" height="25" viewBox="0 0 25 25" fill="none" xmlns="http://www.w3.org/2000/svg">
<path d="M3.83869 22.7672C3.93034 22.9024 4.05374 23.0132 4.19808 23.0897C4.34242 23.1662 4.50331 23.2062 4.66669 23.2062H20.6667C20.8302 23.2063 20.9913 23.1663 21.1358 23.0897C21.2803 23.0131 21.4038 22.9023 21.4955 22.7669C21.5872 22.6314 21.6443 22.4756 21.6617 22.313C21.6792 22.1504 21.6565 21.986 21.5957 21.8342L18.2227 13.4132C19.129 11.8244 19.6252 10.0348 19.6667 8.20618V2.20618C19.6667 1.94096 19.5613 1.68661 19.3738 1.49907C19.1863 1.31153 18.9319 1.20618 18.6667 1.20618C18.4015 1.20618 18.1471 1.31153 17.9596 1.49907C17.772 1.68661 17.6667 1.94096 17.6667 2.20618V5.09118C16.7033 4.75698 15.6855 4.6077 14.6667 4.65118C14.2681 4.70079 13.8843 4.83316 13.5399 5.03981C13.1955 5.24647 12.898 5.52283 12.6667 5.85118C12.4353 5.52283 12.1379 5.24647 11.7935 5.03981C11.4491 4.83316 11.0653 4.70079 10.6667 4.65118C9.64791 4.6077 8.63008 4.75698 7.66669 5.09118V2.20618C7.66669 1.94096 7.56133 1.68661 7.37379 1.49907C7.18626 1.31153 6.9319 1.20618 6.66669 1.20618C6.40147 1.20618 6.14712 1.31153 5.95958 1.49907C5.77205 1.68661 5.66669 1.94096 5.66669 2.20618V8.20618C5.70814 10.0348 6.20442 11.8244 7.11069 13.4132L3.73769 21.8342C3.67691 21.9861 3.65434 22.1506 3.67195 22.3133C3.68956 22.4759 3.74681 22.6318 3.83869 22.7672ZM9.19969 13.5782C9.28178 13.3742 9.29433 13.1488 9.2354 12.9369C9.17646 12.725 9.04933 12.5385 8.87369 12.4062C8.36669 12.0252 7.66669 9.59118 7.66669 8.20618C7.66669 7.29618 7.88169 6.65118 10.5867 6.64018C10.8667 6.75118 11.5567 7.71718 12.1637 8.07018C12.3164 8.15906 12.49 8.20589 12.6667 8.20589C12.8434 8.20589 13.017 8.15906 13.1697 8.07018C13.8517 7.67018 14.3247 6.90418 14.6697 6.65118C17.4547 6.65118 17.6697 7.29618 17.6697 8.20618C17.6697 9.59118 16.9697 12.0252 16.4627 12.4062C16.2873 12.5384 16.1603 12.7248 16.1013 12.9365C16.0424 13.1481 16.0548 13.3733 16.1367 13.5772L19.1887 21.2062H6.14469L9.19969 13.5782Z" fill="#169EF1"/>
</svg>
