<svg width="25" height="25" viewBox="0 0 25 25" fill="none" xmlns="http://www.w3.org/2000/svg">
<path d="M10.5 10.2062C10.5 10.0084 10.4414 9.81505 10.3315 9.65061C10.2216 9.48616 10.0654 9.35798 9.88269 9.2823C9.69996 9.20661 9.49889 9.18681 9.30491 9.22539C9.11093 9.26398 8.93275 9.35922 8.7929 9.49907C8.65304 9.63892 8.5578 9.8171 8.51922 10.0111C8.48063 10.2051 8.50044 10.4061 8.57612 10.5889C8.65181 10.7716 8.77998 10.9278 8.94443 11.0376C9.10888 11.1475 9.30222 11.2062 9.5 11.2062C9.76522 11.2062 10.0196 11.1008 10.2071 10.9133C10.3946 10.7257 10.5 10.4714 10.5 10.2062ZM15 14.2662C14.8865 14.1996 14.7609 14.1562 14.6305 14.1383C14.5002 14.1203 14.3675 14.1283 14.2403 14.1618C14.113 14.1952 13.9936 14.2535 13.8889 14.3332C13.7841 14.4128 13.6962 14.5124 13.63 14.6262C13.5165 14.8258 13.3521 14.9917 13.1536 15.1072C12.9551 15.2226 12.7296 15.2834 12.5 15.2834C12.2704 15.2834 12.0449 15.2226 11.8464 15.1072C11.6479 14.9917 11.4835 14.8258 11.37 14.6262C11.3038 14.5124 11.2159 14.4128 11.1112 14.3332C11.0064 14.2535 10.887 14.1952 10.7597 14.1618C10.6325 14.1283 10.4998 14.1203 10.3695 14.1383C10.2391 14.1562 10.1135 14.1996 10 14.2662C9.77127 14.3981 9.604 14.6151 9.53468 14.8699C9.46536 15.1247 9.49963 15.3966 9.63 15.6262C9.92005 16.131 10.3381 16.5504 10.842 16.842C11.3459 17.1336 11.9178 17.2872 12.5 17.2872C13.0822 17.2872 13.6541 17.1336 14.158 16.842C14.6619 16.5504 15.08 16.131 15.37 15.6262C15.5004 15.3966 15.5346 15.1247 15.4653 14.8699C15.396 14.6151 15.2287 14.3981 15 14.2662ZM15.5 9.20618C15.3022 9.20618 15.1089 9.26482 14.9444 9.37471C14.78 9.48459 14.6518 9.64077 14.5761 9.82349C14.5004 10.0062 14.4806 10.2073 14.5192 10.4013C14.5578 10.5952 14.653 10.7734 14.7929 10.9133C14.9327 11.0531 15.1109 11.1484 15.3049 11.187C15.4989 11.2255 15.7 11.2057 15.8827 11.1301C16.0654 11.0544 16.2216 10.9262 16.3315 10.7617C16.4414 10.5973 16.5 10.404 16.5 10.2062C16.5 9.94096 16.3946 9.68661 16.2071 9.49907C16.0196 9.31153 15.7652 9.20618 15.5 9.20618ZM12.5 2.20618C10.5222 2.20618 8.58879 2.79267 6.9443 3.89148C5.29981 4.99029 4.01809 6.55208 3.26121 8.37934C2.50433 10.2066 2.3063 12.2173 2.69215 14.1571C3.078 16.0969 4.03041 17.8787 5.42894 19.2772C6.82746 20.6758 8.60929 21.6282 10.5491 22.014C12.4889 22.3999 14.4996 22.2018 16.3268 21.445C18.1541 20.6881 19.7159 19.4064 20.8147 17.7619C21.9135 16.1174 22.5 14.184 22.5 12.2062C22.5 10.893 22.2413 9.5926 21.7388 8.37934C21.2362 7.16609 20.4997 6.06369 19.5711 5.13511C18.6425 4.20652 17.5401 3.46993 16.3268 2.96738C15.1136 2.46483 13.8132 2.20618 12.5 2.20618ZM12.5 20.2062C10.6373 20.2142 8.83021 19.572 7.39032 18.3903C5.95043 17.2086 4.96802 15.5615 4.61252 13.7331C4.25702 11.9046 4.55071 10.0094 5.44293 8.37428C6.33516 6.73917 7.77 5.46665 9.5 4.77618C9.48972 4.91933 9.48972 5.06303 9.5 5.20618C9.5 6.00183 9.81607 6.76489 10.3787 7.3275C10.9413 7.89011 11.7044 8.20618 12.5 8.20618C12.7652 8.20618 13.0196 8.10082 13.2071 7.91328C13.3946 7.72575 13.5 7.47139 13.5 7.20618C13.5 6.94096 13.3946 6.68661 13.2071 6.49907C13.0196 6.31153 12.7652 6.20618 12.5 6.20618C12.2348 6.20618 11.9804 6.10082 11.7929 5.91328C11.6054 5.72575 11.5 5.47139 11.5 5.20618C11.5 4.94096 11.6054 4.68661 11.7929 4.49907C11.9804 4.31153 12.2348 4.20618 12.5 4.20618C14.6217 4.20618 16.6566 5.04903 18.1569 6.54932C19.6571 8.04961 20.5 10.0844 20.5 12.2062C20.5 14.3279 19.6571 16.3627 18.1569 17.863C16.6566 19.3633 14.6217 20.2062 12.5 20.2062Z" fill="#169EF1"/>
</svg>
