<svg width="20" height="20" viewBox="0 0 20 20" fill="none" xmlns="http://www.w3.org/2000/svg">
<path fill-rule="evenodd" clip-rule="evenodd" d="M11.7143 7.77539C11.7143 8.65939 10.9471 9.37539 10 9.37539C9.05286 9.37539 8.28571 8.65939 8.28571 7.77539C8.28571 6.89139 9.05286 6.17539 10 6.17539C10.9471 6.17539 11.7143 6.89139 11.7143 7.77539ZM10 16.4C8.43829 16.4 5.71429 10.808 5.71429 7.6C5.71429 5.3944 7.63686 3.6 10 3.6C12.3631 3.6 14.2857 5.3944 14.2857 7.6C14.2857 10.808 11.5617 16.4 10 16.4ZM10 2C6.68629 2 4 4.5072 4 7.6C4 10.6928 6.68629 18 10 18C13.3137 18 16 10.6928 16 7.6C16 4.5072 13.3137 2 10 2Z" fill="#169EF1"/>
</svg>
