<svg width="20" height="21" viewBox="0 0 20 21" fill="none" xmlns="http://www.w3.org/2000/svg">
<path d="M0.833313 10.2062C0.833313 9.74594 1.20641 9.37286 1.66665 9.37286H18.3333C18.7936 9.37286 19.1666 9.74594 19.1666 10.2062C19.1666 10.6664 18.7936 11.0395 18.3333 11.0395H1.66665C1.20641 11.0395 0.833313 10.6664 0.833313 10.2062Z" fill="white"/>
<path d="M0.833313 3.53953C0.833313 3.07929 1.20641 2.70619 1.66665 2.70619H18.3333C18.7936 2.70619 19.1666 3.07929 19.1666 3.53953C19.1666 3.99976 18.7936 4.37286 18.3333 4.37286H1.66665C1.20641 4.37286 0.833313 3.99976 0.833313 3.53953Z" fill="white"/>
<path d="M0.833313 16.8729C0.833313 16.4126 1.20641 16.0395 1.66665 16.0395H18.3333C18.7936 16.0395 19.1666 16.4126 19.1666 16.8729C19.1666 17.3331 18.7936 17.7062 18.3333 17.7062H1.66665C1.20641 17.7062 0.833313 17.3331 0.833313 16.8729Z" fill="white"/>
</svg>
