<svg width="20" height="20" viewBox="0 0 20 20" fill="none" xmlns="http://www.w3.org/2000/svg">
<path d="M8.36471 4.43014L8.90554 5.39925C9.39363 6.27381 9.19771 7.42109 8.42896 8.18983C8.42896 8.18983 7.49661 9.12233 9.18713 10.8129C10.8771 12.5029 11.8102 11.5711 11.8102 11.5711C12.579 10.8023 13.7262 10.6064 14.6008 11.0945L15.5699 11.6353C16.8905 12.3723 17.0465 14.2243 15.8857 15.3852C15.1882 16.0827 14.3337 16.6254 13.3891 16.6612C11.799 16.7215 9.09863 16.3191 6.38979 13.6102C3.68098 10.9014 3.27855 8.20101 3.33883 6.6109C3.37464 5.66633 3.91738 4.81185 4.61488 4.11435C5.77568 2.95356 7.62768 3.10953 8.36471 4.43014Z" stroke="currentColor" stroke-width="1.4" stroke-linecap="round"/>
</svg>
