<svg width="21" height="20" viewBox="0 0 21 20" fill="none" xmlns="http://www.w3.org/2000/svg">
<path d="M13.9618 8.9338C13.9732 7.5164 12.8037 6.2168 11.355 6.03725L11.26 6.023C11.1874 6.00857 11.1136 6.00031 11.0396 5.9983C10.7422 5.9983 10.6634 6.213 10.6425 6.34125C10.6306 6.39451 10.6296 6.44961 10.6394 6.50329C10.6492 6.55697 10.6696 6.60815 10.6995 6.6538C10.7983 6.79155 10.9712 6.8153 11.1099 6.8362C11.1507 6.8419 11.1897 6.84665 11.221 6.8552C12.5235 7.15445 12.9624 7.6266 13.1761 8.95945C13.1818 8.9927 13.1837 9.0326 13.1856 9.07535C13.1951 9.234 13.2151 9.56555 13.5609 9.56555C13.5894 9.56555 13.6198 9.56365 13.6521 9.55795C13.9741 9.5076 13.9637 9.20455 13.9589 9.0592C13.957 9.01835 13.9561 8.9794 13.9589 8.95375C13.96 8.94746 13.9606 8.94112 13.9608 8.93475L13.9618 8.9338Z" fill="currentColor"/>
<path d="M10.956 5.51665C10.994 5.5195 11.032 5.52235 11.0615 5.5271C13.1989 5.8672 14.1831 6.9122 14.4558 9.1371C14.4605 9.1751 14.4606 9.2207 14.4615 9.2701C14.4643 9.44395 14.4701 9.80495 14.8463 9.81255H14.8576C14.9093 9.8153 14.9609 9.80697 15.0091 9.78813C15.0573 9.76928 15.1009 9.74036 15.1369 9.7033C15.2538 9.57695 15.2462 9.3898 15.2396 9.2378C15.2377 9.2017 15.2358 9.16655 15.2367 9.13615C15.2633 6.8609 13.3557 4.7975 11.1536 4.7215L11.127 4.72245C11.1185 4.7237 11.1099 4.72433 11.1013 4.72435C11.0795 4.72435 11.0519 4.72245 11.0234 4.72055C10.9892 4.7177 10.9494 4.71485 10.9094 4.71485C10.5589 4.71485 10.4924 4.97135 10.4838 5.12525C10.4648 5.4796 10.7964 5.50525 10.956 5.51665ZM14.3523 12.0118C14.3065 11.976 14.2612 11.9395 14.2164 11.9025C13.9827 11.7087 13.7338 11.5301 13.4944 11.3572C13.4443 11.3212 13.3943 11.2851 13.3443 11.2489C13.0365 11.0266 12.7601 10.9174 12.4988 10.9174C12.1473 10.9174 11.8405 11.1188 11.5868 11.5149C11.4747 11.6897 11.3379 11.7752 11.1707 11.7752C11.054 11.7711 10.9395 11.7416 10.8353 11.6888C9.8426 11.2233 9.13295 10.5108 8.7273 9.5703C8.5316 9.1143 8.5943 8.8179 8.9401 8.57565C9.1358 8.43885 9.5006 8.1833 9.47495 7.69405C9.44645 7.1383 8.258 5.4663 7.75735 5.2763C7.54378 5.1957 7.30828 5.19503 7.09425 5.2744C6.5195 5.4739 6.10625 5.8254 5.9001 6.28805C5.7006 6.73645 5.7101 7.2618 5.9267 7.809C6.55085 9.3917 7.4277 10.7711 8.5354 11.9092C9.6184 13.0236 10.9503 13.9355 12.4931 14.6214C12.6318 14.6832 12.7781 14.7165 12.8845 14.7411L12.9747 14.7639C12.9871 14.7675 12.9999 14.7694 13.0128 14.7696H13.0251C13.7509 14.7696 14.6221 14.0856 14.8899 13.3047C15.1246 12.6207 14.6962 12.2825 14.3523 12.0118ZM11.2771 7.3245C11.1536 7.32735 10.8942 7.334 10.8031 7.6057C10.7613 7.733 10.766 7.8432 10.8182 7.93345C10.8952 8.06645 11.0434 8.1073 11.1774 8.12915C11.6637 8.2099 11.9145 8.48825 11.964 9.00315C11.9877 9.24445 12.1444 9.41165 12.3458 9.41165C12.3611 9.41197 12.3763 9.41134 12.3914 9.40975C12.6337 9.37935 12.7505 9.196 12.7401 8.8635C12.7439 8.5158 12.5682 8.1225 12.2689 7.809C11.9687 7.4936 11.6067 7.31595 11.2771 7.3245Z" fill="currentColor"/>
<path d="M4.8 1.9C4.29609 1.9 3.81282 2.10018 3.4565 2.4565C3.10018 2.81282 2.9 3.29609 2.9 3.8V15.2C2.9 15.7039 3.10018 16.1872 3.4565 16.5435C3.81282 16.8998 4.29609 17.1 4.8 17.1H16.2C16.7039 17.1 17.1872 16.8998 17.5435 16.5435C17.8998 16.1872 18.1 15.7039 18.1 15.2V3.8C18.1 3.29609 17.8998 2.81282 17.5435 2.4565C17.1872 2.10018 16.7039 1.9 16.2 1.9H4.8ZM4.8 0H16.2C17.2078 0 18.1744 0.400356 18.887 1.11299C19.5996 1.82563 20 2.79218 20 3.8V15.2C20 16.2078 19.5996 17.1744 18.887 17.887C18.1744 18.5996 17.2078 19 16.2 19H4.8C3.79218 19 2.82563 18.5996 2.11299 17.887C1.40036 17.1744 1 16.2078 1 15.2V3.8C1 2.79218 1.40036 1.82563 2.11299 1.11299C2.82563 0.400356 3.79218 0 4.8 0Z" fill="currentColor"/>
</svg>
