<svg width="20" height="20" viewBox="0 0 20 20" fill="none" xmlns="http://www.w3.org/2000/svg">
<path fill-rule="evenodd" clip-rule="evenodd" d="M9.17125 1.66667H10.8288C11.9838 1.66666 12.9023 1.66666 13.643 1.72817C14.4016 1.79116 15.0479 1.92296 15.6382 2.22961C16.5514 2.70398 17.296 3.44858 17.7704 4.3618C18.0771 4.95211 18.2088 5.59843 18.2718 6.357C18.3333 7.09769 18.3333 8.01625 18.3333 9.17125V10.8288C18.3333 11.9838 18.3333 12.9023 18.2718 13.643C18.2088 14.4016 18.0771 15.0479 17.7704 15.6382C17.296 16.5514 16.5514 17.296 15.6382 17.7704C15.0479 18.0771 14.4016 18.2088 13.643 18.2718C12.9023 18.3333 11.9838 18.3333 10.8288 18.3333H9.17125C8.01625 18.3333 7.09769 18.3333 6.357 18.2718C5.59843 18.2088 4.95211 18.0771 4.3618 17.7704C3.44858 17.296 2.70398 16.5514 2.22961 15.6382C1.92296 15.0479 1.79116 14.4016 1.72817 13.643C1.66666 12.9023 1.66666 11.9838 1.66667 10.8288V9.17125C1.66666 8.01625 1.66666 7.09768 1.72817 6.357C1.79116 5.59843 1.92296 4.95211 2.22961 4.3618C2.70398 3.44858 3.44858 2.70398 4.3618 2.22961C4.95211 1.92296 5.59843 1.79116 6.357 1.72817C7.09768 1.66666 8.01625 1.66666 9.17125 1.66667ZM6.49493 3.38912C5.8413 3.4434 5.44285 3.54616 5.13009 3.70863C4.52128 4.02488 4.02488 4.52128 3.70863 5.13009C3.54616 5.44285 3.4434 5.8413 3.38912 6.49493C3.33401 7.15855 3.33334 8.00791 3.33334 9.20834V10.7917C3.33334 11.9921 3.33401 12.8414 3.38912 13.5051C3.4434 14.1588 3.54616 14.5572 3.70863 14.8699C4.02488 15.4788 4.52128 15.9752 5.13009 16.2914C5.44285 16.4538 5.8413 16.5566 6.49493 16.6109C7.15855 16.666 8.00791 16.6667 9.20834 16.6667H10.7917C11.9921 16.6667 12.8414 16.666 13.5051 16.6109C14.1588 16.5566 14.5572 16.4538 14.8699 16.2914C15.4788 15.9752 15.9752 15.4788 16.2914 14.8699C16.4538 14.5572 16.5566 14.1588 16.6109 13.5051C16.666 12.8414 16.6667 11.9921 16.6667 10.7917V9.20834C16.6667 8.00791 16.666 7.15855 16.6109 6.49493C16.5566 5.8413 16.4538 5.44285 16.2914 5.13009C15.9752 4.52128 15.4788 4.02488 14.8699 3.70863C14.5572 3.54616 14.1588 3.4434 13.5051 3.38912C12.8414 3.33401 11.9921 3.33334 10.7917 3.33334H9.20834C8.00791 3.33334 7.15855 3.33401 6.49493 3.38912ZM9.857 5.63114C10.3173 5.63114 10.6903 6.00423 10.6903 6.46447V10.6038L13.6294 11.7211C14.0597 11.8846 14.2758 12.3659 14.1123 12.7961C13.9488 13.2263 13.4674 13.4425 13.0373 13.2789L9.56092 11.9575C9.2375 11.8345 9.02367 11.5245 9.02367 11.1785V6.46447C9.02367 6.00423 9.39675 5.63114 9.857 5.63114Z" fill="#169EF1"/>
</svg>
