<svg width="24" height="25" viewBox="0 0 24 25" fill="none" xmlns="http://www.w3.org/2000/svg">
<path d="M5.19752 11.0912C3.71878 11.0912 2.52002 9.89242 2.52002 8.41368V7.64868C2.52002 5.74744 4.06128 4.20618 5.96252 4.20618H9.78752C10.8438 4.20618 11.7 5.06243 11.7 6.11868C11.7 7.17492 10.8438 8.03118 9.78752 8.03118H9.02252C8.38877 8.03118 7.87502 7.51742 7.87502 6.88368V6.50118C7.87502 6.07868 7.53252 5.73618 7.11002 5.73618C6.68752 5.73618 6.34502 6.07868 6.34502 6.50118V7.64868C6.34502 8.70492 7.20127 9.56118 8.25752 9.56118H9.40502C10.6725 9.56118 11.7 10.5887 11.7 11.8562V14.1512C11.7 15.4187 10.6725 16.4462 9.40502 16.4462H4.81502C3.54753 16.4462 2.52002 15.4187 2.52002 14.1512C2.52002 13.3062 3.20502 12.6212 4.05002 12.6212H5.19752C5.83127 12.6212 6.34502 13.1349 6.34502 13.7687V14.1512C6.34502 14.5737 6.68752 14.9162 7.11002 14.9162C7.53252 14.9162 7.87502 14.5737 7.87502 14.1512V13.0037C7.87502 11.9474 7.01876 11.0912 5.96252 11.0912H5.19752Z" fill="#169EF1"/>
<path d="M7.25 16.2062V20.2062" stroke="#169EF1" stroke-width="2"/>
<path d="M13.8343 11.8324C12.5455 11.4871 11.7806 10.1623 12.126 8.8734L12.3046 8.20663C12.7486 6.54953 14.4519 5.56613 16.109 6.01015L19.4429 6.90345C20.3635 7.15012 20.9098 8.0964 20.6632 9.01702C20.4165 9.93763 19.4702 10.484 18.5496 10.2373L17.8828 10.0586C17.3304 9.91062 17.0026 9.34285 17.1506 8.79049L17.24 8.4571C17.3387 8.08886 17.1201 7.71034 16.7519 7.61167C16.3836 7.513 16.0051 7.73154 15.9064 8.09978L15.6385 9.09993C15.3918 10.0205 15.9381 10.9668 16.8587 11.2135L17.8589 11.4815C18.9636 11.7775 19.6192 12.913 19.3232 14.0178L18.7872 16.0181C18.4912 17.1229 17.3557 17.7784 16.2509 17.4824L12.2503 16.4104C11.1456 16.1144 10.49 14.9789 10.786 13.8742C10.9833 13.1377 11.7404 12.7006 12.4769 12.8979L13.477 13.1659C14.0294 13.3139 14.3572 13.8817 14.2092 14.4341L14.1198 14.7675C14.0212 15.1357 14.2397 15.5142 14.608 15.6129C14.9762 15.7116 15.3547 15.493 15.4534 15.1248L15.7214 14.1246C15.968 13.204 15.4217 12.2577 14.5011 12.0111L13.8343 11.8324Z" fill="#169EF1"/>
<path d="M14.6205 16.8214L13.9199 19.4361" stroke="#169EF1" stroke-width="2"/>
</svg>
