<svg width="21" height="20" viewBox="0 0 21 20" fill="none" xmlns="http://www.w3.org/2000/svg">
<path d="M14.775 11.8625C14.5375 11.75 13.4 11.1875 13.1875 11.1C12.975 11.0125 12.825 10.9875 12.6625 11.225C12.5 11.4625 12.0625 11.975 11.925 12.1375C11.7875 12.3 11.6625 12.3125 11.425 12.1375C10.7429 11.8637 10.1128 11.4747 9.56251 10.9875C9.06432 10.5185 8.64256 9.97438 8.31251 9.375C8.17501 9.15 8.31251 9.025 8.41251 8.9C8.51251 8.775 8.63751 8.6375 8.76251 8.5C8.85392 8.38109 8.92955 8.25084 8.98751 8.1125C9.01852 8.04817 9.03462 7.97767 9.03462 7.90625C9.03462 7.83483 9.01852 7.76433 8.98751 7.7C8.98751 7.5875 8.46251 6.45 8.26251 5.9875C8.06251 5.525 7.88751 5.5875 7.75001 5.5875H7.25001C7.01182 5.59679 6.78705 5.70018 6.62501 5.875C6.36345 6.12459 6.15628 6.42552 6.01647 6.75892C5.87665 7.09232 5.80721 7.45101 5.81251 7.8125C5.87644 8.69998 6.20277 9.54841 6.75001 10.25C7.75422 11.7418 9.12809 12.9477 10.7375 13.75C11.2875 13.9875 11.7125 14.125 12.05 14.2375C12.5239 14.3807 13.0249 14.4107 13.5125 14.325C13.8364 14.2593 14.1433 14.1278 14.4142 13.9385C14.6852 13.7493 14.9143 13.5064 15.0875 13.225C15.2316 12.8774 15.2791 12.4974 15.225 12.125C15.1625 12.0375 15.0125 11.975 14.775 11.8625Z" fill="currentColor"/>
<path d="M17.1125 3.35C16.248 2.47735 15.2176 1.78665 14.0819 1.31864C12.9462 0.850627 11.7283 0.614776 10.5 0.624998C8.87286 0.633513 7.27643 1.06879 5.87017 1.88735C4.4639 2.70591 3.29701 3.87911 2.48604 5.28977C1.67506 6.70043 1.2484 8.29917 1.24865 9.92633C1.24891 11.5535 1.67608 13.1521 2.48749 14.5625L1.23749 19.375L6.16249 18.125C7.52403 18.8659 9.04992 19.2527 10.6 19.25H10.5C12.3474 19.262 14.1565 18.7236 15.6967 17.7033C17.2368 16.683 18.4382 15.2272 19.1476 13.5214C19.857 11.8156 20.0423 9.93713 19.6798 8.12559C19.3174 6.31406 18.4236 4.65153 17.1125 3.35ZM10.5 17.65C9.11318 17.6511 7.75215 17.2752 6.56249 16.5625L6.28749 16.4L3.36249 17.1625L4.13749 14.3125L3.96249 14.025C2.96418 12.4173 2.59075 10.4991 2.91305 8.63427C3.23534 6.76947 4.23094 5.08786 5.71095 3.90848C7.19095 2.7291 9.05238 2.13402 10.9421 2.23615C12.8317 2.33827 14.6182 3.13049 15.9625 4.4625C16.6832 5.17736 17.2544 6.02851 17.6428 6.96634C18.0312 7.90416 18.2291 8.90992 18.225 9.925C18.2217 11.9728 17.4067 13.9357 15.9587 15.3837C14.5107 16.8317 12.5478 17.6467 10.5 17.65Z" fill="currentColor"/>
</svg>
